#N canvas 388 223 1417 796 10;
#X obj 0 -8 cnv 15 1524 768 empty empty empty 20 12 0 14 -1 -66577
0;
#X obj 2 -6 cnv 15 1520 764 empty empty AudioCamera_-_01xy 20 20 0
21 -261185 -66577 0;
#N canvas 561 151 999 709 audiotest 0;
#X obj 1 -689 cnv 15 119 400 empty empty empty 20 12 0 14 -259393 -66577
0;
#X obj 1154 -394 cnv 15 100 60 empty empty empty 20 12 0 14 -233017
-66577 0;
#X obj 1164 -384 cnv 15 100 60 empty empty empty 20 12 0 14 -233017
-66577 0;
#X obj 1174 -377 cnv 15 100 60 empty empty empty 20 12 0 14 -233017
-66577 0;
#X obj 1184 -367 cnv 15 100 60 empty empty empty 20 12 0 14 -233017
-66577 0;
#X obj 1194 -357 cnv 15 100 60 empty empty empty 20 12 0 14 -233017
-66577 0;
#X obj 25 -673 tgl 45 0 empty empty Audio -6 -10 0 18 -4034 -258113
-1 0 1;
#X msg 72 -666 \; pd dsp \$1;
#X obj -45 -648 catch~ audioG;
#X obj 145 -645 catch~ audioD;
#X obj 15 -451 vu 15 120 empty empty -1 -8 0 10 -66577 -1 1 0;
#X obj -49 -512 gainvu~ 300;
#X obj -64 -276 dac~ 1 2;
#X floatatom 13 -477 3 0 0 0 - - -;
#X obj 14 -608 vsl 16 128 0 127 0 0 empty volgd Vol_G -14 -9 0 10 -258753
-1 -1 0 1;
#X floatatom 14 -305 5 0 0 0 - - -;
#X floatatom 24 -323 5 0 0 0 - - -;
#X obj 67 -451 vu 15 120 empty empty -1 -8 0 10 -66577 -1 1 0;
#X obj 146 -514 gainvu~ 300;
#X obj 146 -301 dac~ 1 2;
#X floatatom 65 -477 3 0 0 0 - - -;
#X obj 66 -608 vsl 16 128 0 127 0 0 empty volgd Vol_D 0 -9 0 10 -258753
-1 -1 0 1;
#X floatatom 66 -305 5 0 0 0 - - -;
#X floatatom 75 -323 5 0 0 0 - - -;
#X obj 32 -608 vsl 32 128 0 127 0 0 volgd rvolgd G_D 2 -12 0 16 -258305
-262144 -1 0 1;
#X text 97 -530 OFF;
#X text 96 -545 -40;
#X text 96 -562 -20;
#X obj 82 -593 vradio 16 1 0 5 empty empty empty 0 -6 0 8 -258113 -262144
-1 1;
#X msg 277 -539 100;
#X obj 245 -577 sel 0 1 2 3 4;
#X msg 245 -540 110;
#X msg 310 -539 80;
#X msg 344 -539 60;
#X obj 247 -403 s rvolgd;
#X obj 247 -430 line;
#X obj 247 -458 pack f 500;
#X msg 375 -537 -100;
#X msg 218 -492 set \$1;
#X obj 218 -558 f;
#X obj 218 -601 t f b;
#X text 97 -594 +10;
#X text 98 -577 0db;
#X obj -50 -379 *~ 1;
#X obj 145 -384 *~ 1;
#X text -79 -466 4;
#X text -46 -466 5;
#X text -67 -623 SPECTRUM;
#X obj 191 -685 r ib;
#X msg 87 -612 1;
#X msg 85 -687 1;
#X obj 255 -690 netreceive 3000;
#X floatatom 355 -669 0 0 0 0 - - -;
#X obj 255 -669 print tcp;
#X obj 369 -449 t b b;
#X obj 434 -435 t b b;
#X msg 369 -414 up;
#X msg 445 -402 down;
#X floatatom 395 -286 5 0 0 0 - - -;
#X obj 287 -622 sel;
#X obj 409 -625 unpack s f f;
#X floatatom 431 -585 5 0 0 0 - - -;
#X obj 431 -545 sel 1 2;
#X obj 405 -330 * 3;
#X obj 396 -369 counter 0 100;
#X obj 485 -547 sel 4;
#X obj 490 -511 tgl 15 0 empty empty empty 17 7 0 10 -262144 -1 -1
0 1;
#X obj 492 -482 sel 0 1;
#X connect 6 0 7 0;
#X connect 8 0 11 0;
#X connect 9 0 18 0;
#X connect 10 0 15 0;
#X connect 10 1 16 0;
#X connect 11 0 43 0;
#X connect 11 1 13 0;
#X connect 11 2 10 0;
#X connect 14 0 11 1;
#X connect 17 0 22 0;
#X connect 17 1 23 0;
#X connect 18 0 44 0;
#X connect 18 1 20 0;
#X connect 18 2 17 0;
#X connect 21 0 18 1;
#X connect 24 0 39 1;
#X connect 28 0 40 0;
#X connect 29 0 36 0;
#X connect 30 0 31 0;
#X connect 30 1 29 0;
#X connect 30 2 32 0;
#X connect 30 3 33 0;
#X connect 30 4 37 0;
#X connect 31 0 36 0;
#X connect 32 0 36 0;
#X connect 33 0 36 0;
#X connect 35 0 34 0;
#X connect 36 0 35 0;
#X connect 37 0 36 0;
#X connect 38 0 35 0;
#X connect 39 0 38 0;
#X connect 40 0 30 0;
#X connect 40 1 39 0;
#X connect 43 0 12 0;
#X connect 44 0 19 1;
#X connect 48 0 49 0;
#X connect 48 0 50 0;
#X connect 49 0 28 0;
#X connect 50 0 6 0;
#X connect 51 0 53 0;
#X connect 51 0 60 0;
#X connect 51 1 52 0;
#X connect 54 0 64 0;
#X connect 54 1 56 0;
#X connect 55 0 64 0;
#X connect 55 1 57 0;
#X connect 56 0 64 0;
#X connect 57 0 64 0;
#X connect 58 0 36 0;
#X connect 60 1 61 0;
#X connect 60 2 65 0;
#X connect 61 0 62 0;
#X connect 62 0 55 0;
#X connect 62 1 54 0;
#X connect 63 0 58 0;
#X connect 64 0 63 0;
#X connect 65 0 66 0;
#X connect 66 0 67 0;
#X connect 67 0 37 0;
#X connect 67 1 29 0;
#X coords 0 -1 1 1 122 401 1 0 -690;
#X restore 18 32 pd audiotest;
#N canvas 6 56 1908 994 ImgAudioAnalys 0;
#X obj 3 3 cnv 15 1346 548 empty empty Vsynth_RGB_3xtabosc~ 20 12 0
14 -224822 -66577 0;
#X obj 1803 -24 cnv 15 180 200 empty empty empty 20 12 0 14 -261681
-66577 0;
#X obj 1839 -1 tgl 15 0 empty play-set play 18 8 0 12 -262144 -1 -1
0 1;
#X obj 1839 91 phasor~;
#X obj 1842 18 hsl 128 15 -2 2 0 0 empty empty empty -2 -6 0 8 -262144
-1 -1 0 1;
#X floatatom 1839 37 5 0 0 0 - - -;
#X obj 1856 52 r base_freq;
#X obj 1855 109 r len_samples;
#X obj 1839 128 *~;
#X obj 1839 71 *;
#X obj 1881 220 inlet;
#X obj 1881 258 dbtorms;
#X obj 1881 298 line~;
#X obj 1745 359 *~;
#X obj 1779 410 dac~;
#X obj 1881 278 pack 0 50;
#X obj 1807 356 *~;
#X floatatom 1881 240 5 0 200 0 - - -;
#X obj 1686 53 tgl 15 0 empty play-set play 18 8 0 12 -262144 -1 -1
0 1;
#X obj 1686 145 phasor~;
#X obj 1689 72 hsl 128 15 -2 2 0 0 empty empty empty -2 -6 0 8 -262144
-1 -1 0 1;
#X floatatom 1686 91 5 0 0 0 - - -;
#X obj 1703 106 r base_freq;
#X obj 1702 163 r len_samples;
#X obj 1686 182 *~;
#X obj 1686 125 *;
#X obj 1612 229 tgl 15 0 empty play-set play 18 8 0 12 -262144 -1 -1
0 1;
#X obj 1612 321 phasor~;
#X obj 1615 248 hsl 128 15 -2 2 0 0 empty empty empty -2 -6 0 8 -262144
-1 -1 0 1;
#X floatatom 1612 267 7 0 0 0 - - -;
#X obj 1644 292 r base_freq;
#X obj 1628 339 r len_samples;
#X obj 1612 358 *~;
#X obj 1612 301 *;
#X obj -209 142 catch~ RRR;
#X msg 206 133 34;
#X msg 1745 55 0.118;
#X msg 1548 231 0.181;
#X msg 1905 1 0.149;
#X msg 1782 -43 0.0001;
#X msg 1712 30 0.0001;
#X obj 1819 302 hip~ 20;
#X obj 1757 302 hip~ 20;
#X obj 1612 108 vsl 15 100 0 0.0005 0 0 empty empty empty 0 -9 0 10
-261234 -258113 -1 0 1;
#X obj -139 167 dbtorms;
#X obj -139 207 line~;
#X obj -221 242 *~;
#X obj -207 293 dac~;
#X obj -139 187 pack 0 50;
#X obj -159 239 *~;
#X floatatom 32 254 5 0 0 0 - - -;
#X obj -209 185 hip~ 20;
#N canvas 3 53 909 590 midioutput 0;
#X obj 448 416 noteout 1;
#X obj 448 362 makenote 100 100;
#X floatatom 491 241 5 0 0 0 - - -;
#X floatatom 412 378 5 0 0 0 - - -;
#X floatatom 460 385 5 0 0 0 - - -;
#X obj 284 362 makenote 100 100;
#X floatatom 315 224 5 0 0 0 - - -;
#X floatatom 248 378 5 0 0 0 - - -;
#X floatatom 296 385 5 0 0 0 - - -;
#X obj 283 416 noteout 2;
#X obj 142 358 makenote 100 100;
#X floatatom 175 254 5 0 0 0 - - -;
#X floatatom 106 374 5 0 0 0 - - -;
#X floatatom 154 381 5 0 0 0 - - -;
#X obj 141 412 noteout 3;
#X obj -29 359 makenote 100 100;
#X floatatom -6 198 5 0 0 0 - - -;
#X floatatom -65 375 5 0 0 0 - - -;
#X floatatom -17 382 5 0 0 0 - - -;
#X obj -29 221 - 0;
#X obj -30 413 noteout 4;
#X floatatom 332 341 5 0 0 0 - - -;
#X floatatom 568 319 7 0 0 2 Duree - -;
#X floatatom 17 338 5 0 0 0 - - -;
#X floatatom 188 335 5 0 0 0 - - -;
#X floatatom 494 343 5 0 0 0 - - -;
#X floatatom 572 283 5 0 0 2 Velo - -;
#X floatatom 240 284 5 0 0 0 - - -;
#X obj 280 265 maxlib/scale 0 64 35 50;
#X obj 280 286 int;
#X obj -28 309 speedlim 40;
#X obj 139 296 speedlim 40;
#X obj 280 313 speedlim 40;
#X obj 434 309 speedlim 40;
#X floatatom 37 287 5 0 0 0 - speedlim -;
#X floatatom 200 277 5 0 0 0 - speedlim -;
#X floatatom 344 291 5 0 0 0 - speedlim -;
#X floatatom 500 281 5 0 0 0 - speedlim -;
#X floatatom 571 242 5 0 0 2 speedlim - speedlim;
#X obj 571 161 loadbang;
#X msg 605 199 0.0001;
#X floatatom 208 395 5 0 0 0 - - -;
#X floatatom 59 385 5 0 0 0 - - -;
#X floatatom 519 394 5 0 0 0 - - -;
#X floatatom 448 326 5 0 0 0 - - -;
#X floatatom 149 322 5 0 0 0 - - -;
#X floatatom -70 326 5 0 0 0 - - -;
#X obj 403 331 t f b;
#X obj 599 356 random 128;
#X obj 36 233 t f b;
#X obj 61 261 random 128;
#X msg 571 200 0;
#X obj 638 287 inlet;
#X obj -102 246 print aaa;
#X obj 425 245 - 0;
#X obj 280 243 - 0;
#X obj 140 253 - 0;
#X obj -29 167 maxlib/scale 0 1 10 100;
#X obj 137 209 maxlib/scale 0 1 10 100;
#X obj 407 195 maxlib/scale 0 1 10 100;
#X connect 1 0 0 0;
#X connect 1 1 0 1;
#X connect 2 0 54 1;
#X connect 3 0 0 0;
#X connect 4 0 0 1;
#X connect 5 0 9 0;
#X connect 5 1 9 1;
#X connect 6 0 55 1;
#X connect 7 0 9 0;
#X connect 8 0 9 1;
#X connect 10 0 14 0;
#X connect 10 1 14 1;
#X connect 11 0 56 1;
#X connect 12 0 14 0;
#X connect 13 0 14 1;
#X connect 15 0 20 0;
#X connect 15 1 20 1;
#X connect 16 0 19 1;
#X connect 17 0 20 0;
#X connect 18 0 20 1;
#X connect 19 0 30 0;
#X connect 21 0 5 1;
#X connect 22 0 15 2;
#X connect 22 0 10 2;
#X connect 22 0 5 2;
#X connect 22 0 1 2;
#X connect 23 0 15 1;
#X connect 24 0 10 1;
#X connect 25 0 1 1;
#X connect 26 0 23 0;
#X connect 26 0 24 0;
#X connect 26 0 21 0;
#X connect 26 0 25 0;
#X connect 27 0 5 0;
#X connect 28 0 29 0;
#X connect 29 0 32 0;
#X connect 30 0 49 0;
#X connect 31 0 10 0;
#X connect 32 0 5 0;
#X connect 33 0 47 0;
#X connect 34 0 30 1;
#X connect 35 0 31 1;
#X connect 36 0 32 1;
#X connect 37 0 33 1;
#X connect 39 0 51 0;
#X connect 40 0 38 0;
#X connect 41 0 14 2;
#X connect 42 0 20 2;
#X connect 43 0 0 2;
#X connect 44 0 1 0;
#X connect 45 0 10 0;
#X connect 46 0 15 0;
#X connect 47 0 1 0;
#X connect 47 1 48 0;
#X connect 48 0 1 1;
#X connect 49 0 15 0;
#X connect 49 1 50 0;
#X connect 50 0 15 1;
#X connect 51 0 38 0;
#X connect 52 0 22 0;
#X connect 54 0 33 0;
#X connect 55 0 28 0;
#X connect 56 0 31 0;
#X connect 57 0 19 0;
#X connect 58 0 56 0;
#X connect 59 0 54 0;
#X restore 1997 -18 pd midioutput;
#X obj 32 148 vsl 32 100 0 127 0 0 empty empty empty 0 -9 0 10 -258113
-262144 -1 6300 1;
#X msg 172 130 26;
#X obj 2010 226 osc~ 440;
#X floatatom 1954 398 10 0 0 1 length_in_seconds - -;
#X floatatom 1980 437 10 0 0 1 length_in_samples - -;
#X obj 1980 454 s len_samples;
#X obj 1954 516 /;
#X obj 1954 478 t b f;
#X floatatom 1954 535 10 0 0 1 base_frequency - -;
#X obj 1954 497 1;
#X obj 1954 559 s base_freq;
#X obj 1954 379 / 1000;
#X obj 1980 417 * 44100;
#X floatatom 1954 356 5 0 0 0 - - -;
#X msg 1955 329 40;
#X msg 1984 329 60;
#X text 2018 327 fps 2 read sample;
#X msg 1947 1 2;
#X msg 1788 55 2;
#X msg 1669 231 2;
#X msg 142 132 52;
#X msg -212 398 start;
#X msg -210 424 stop;
#X obj -222 488 writesf~ 2;
#X msg -221 336 open /home/benjamin/RGBwaves05.wav;
#X obj -242 596 random 100;
#X obj -207 560 t b b b;
#X obj -167 596 random 100;
#X obj -117 564 random 100;
#X obj -206 536 metro 80;
#X obj -236 536 tgl 15 0 empty empty empty 17 7 0 10 -262144 -1 -1
0 1;
#X msg 142 39 30;
#X obj 557 61 hsl 100 19 0 127 0 0 empty \$0-tone empty -2 -8 0 10
-262130 -258113 -1 2600 1;
#X msg 416 42 64.14;
#X obj 393 28 bng 15 250 50 0 empty empty 64 17 7 0 10 -159808 -1 -1
;
#X obj 1966 109 vsl 21 128 0 127 0 0 empty empty empty 0 -9 0 10 -258113
-262144 -1 0 1;
#X obj 1612 -59 tgl 15 0 empty play-set play 18 8 0 12 -262144 -1 -1
0 1;
#X obj 1615 -40 hsl 128 15 -2 2 0 0 empty empty empty -2 -6 0 8 -260097
-258113 -1 0 1;
#X floatatom 1612 -21 7 0 0 0 - - -;
#X floatatom 555 84 5 0 0 0 - - -;
#X obj 1562 -57 r ib;
#X msg 32 123 82;
#X msg 1583 -55 0.35;
#X msg 705 59 29.93;
#X msg 454 36 32.3;
#X obj 394 83 bng 15 250 50 0 empty empty 32 17 7 0 10 -159808 -1 -1
;
#X floatatom 1554 2 7 0 0 1 sp - -;
#X floatatom 1566 21 5 0 150 1 vol - -;
#X obj 1587 75 delay 250;
#X obj 1585 49 r ib;
#X msg 1566 188 0.34;
#X msg 1624 50 0.0037;
#X msg 1539 258 0.0001;
#X msg 1638 105 0.34;
#X obj -81 16 abs;
#X floatatom -166 -132 5 0 0 0 - - -;
#X obj -169 -37 print po9999;
#X obj -246 -90 unpack f f f f;
#X obj 1955 304 loadbang;
#X msg 1913 329 33.33;
#X msg 1877 359 29;
#X msg 114 93 3.5;
#X msg 706 80 5.13;
#X msg 445 89 5.131;
#X obj 395 131 bng 15 250 50 0 empty empty 3-5 17 7 0 10 -159808 -1
-1;
#X msg 1548 -28 3.83291;
#X msg 483 62 33.35;
#X obj 395 58 bng 15 250 50 0 empty empty 33 17 7 0 10 -159808 -1 -1
;
#X obj -81 -153 print inaudiodata;
#X obj -252 -19 / 1;
#X obj -223 -7 / 1;
#X obj -193 1 / 1;
#X floatatom -142 -71 0 0 0 0 - - -;
#X floatatom -232 -60 0 0 0 0 - - -;
#X floatatom -74 -11 0 0 0 0 - - -;
#X floatatom -215 -33 0 0 0 0 - - -;
#X obj -106 -129 hsl 128 15 0 3 0 0 empty empty empty -2 -8 0 10 -262144
-1 -1 4233 1;
#X obj -53 -183 loadbang;
#X msg -143 -159 0.09;
#X msg -109 -170 1;
#X text 349 -174 BAD ! but works;
#X obj -253 -162 netreceive 20001;
#X msg 48 -283 \; cameraG2 resize 131;
#X msg 49 -241 \; cameraB2 resize 131;
#X msg 51 -200 \; cameraR2 resize 131;
#X msg 195 -199 \; cameraR2 resize 259;
#X msg 193 -240 \; cameraB2 resize 259;
#X msg 192 -282 \; cameraG2 resize 259;
#X msg 332 -288 \; cameraG2 resize 352;
#X msg 333 -246 \; cameraB2 resize 352;
#X msg 335 -205 \; cameraR2 resize 352;
#X msg 472 -206 \; cameraR2 resize 515;
#X msg 470 -247 \; cameraB2 resize 515;
#X msg 469 -289 \; cameraG2 resize 515;
#X obj 1612 377 tabread4~ cameraR2;
#X obj 1686 201 tabread4~ cameraB2;
#X obj 1839 147 tabread4~ cameraG2;
#X obj -261 32 tabwrite cameraR2;
#X obj -226 63 tabwrite cameraG2;
#X obj -192 93 tabwrite cameraB2;
#X msg 201 -137 \; cameraG2 resize 1027;
#X msg 201 -94 \; cameraB2 resize 1027;
#X msg 204 -54 \; cameraR2 resize 1027;
#X msg 343 -137 \; cameraG2 resize 2051;
#X obj 214 906 mtof;
#X obj 214 930 sig~;
#X obj 179 929 mtof;
#X obj 179 954 sig~;
#X obj 144 954 mtof;
#X obj 144 979 sig~;
#X obj 144 1034 *~ 0.4;
#X obj 144 1059 throw~ RRR;
#X obj 214 954 tabosc4~ cameraR2;
#X obj 179 979 tabosc4~ cameraR2;
#X obj 144 1003 tabosc4~ cameraR2;
#X msg 84 630 19.44 50 48.99;
#X obj 130 721 t f f f;
#X floatatom 114 175 5 0 0 0 - - -;
#X obj 254 181 vsl 15 60 0 1 0 0 empty empty empty 0 -9 0 10 -258113
-262144 -1 2360 1;
#X msg 254 157 0;
#X floatatom 254 252 5 0 100 0 - - -;
#X msg 287 157 0.4;
#X floatatom 142 259 5 0 0 0 - - -;
#X floatatom 179 259 5 0 0 0 - - -;
#X floatatom 214 259 5 0 0 0 - - -;
#X msg -26 865 set \$1;
#X msg 29 826 set \$1;
#X msg 10 847 set \$1;
#X text 143 242 sig~ speed -100-;
#X floatatom 144 222 5 0 0 0 - - -;
#X floatatom 181 222 5 0 0 0 - - -;
#X floatatom 216 222 5 0 0 0 - - -;
#X obj -49 762 t b f;
#X obj 117 781 f;
#X obj 152 780 f;
#X obj 187 779 f;
#X obj -9 738 t b f;
#X obj 25 717 t b f;
#X obj 118 818 - 0;
#X obj 153 817 - 3;
#X obj 188 816 - 7;
#X text 156 200 harmo 0-3-7;
#X obj 180 881 r d1;
#X obj 180 861 r m1;
#X obj 249 845 r m2;
#X obj 249 865 r d2;
#X obj 156 861 * 1;
#X obj 156 882 / 1;
#X obj 225 845 * 1;
#X obj 225 865 / 1;
#X obj 187 721 r modg;
#X obj 555 909 mtof;
#X obj 555 933 sig~;
#X obj 520 932 mtof;
#X obj 520 957 sig~;
#X obj 485 957 mtof;
#X obj 485 982 sig~;
#X obj 485 1037 *~ 0.4;
#X obj 485 1062 throw~ RRR;
#X msg 428 657 19.44 50 48.99;
#X obj 471 724 t f f f;
#X obj 458 158 hsl 128 15 0 127 0 0 empty \$0-tone empty -2 -8 0 10
-204786 -258113 -1 3335 1;
#X floatatom 455 178 5 0 0 0 - - -;
#X obj 595 184 vsl 15 60 0 1 0 0 empty empty empty 0 -9 0 10 -258113
-262144 -1 2360 1;
#X msg 595 160 0;
#X floatatom 595 255 5 0 100 0 - - -;
#X msg 628 160 0.4;
#X floatatom 483 262 5 0 0 0 - - -;
#X floatatom 520 262 5 0 0 0 - - -;
#X floatatom 555 262 5 0 0 0 - - -;
#X msg 315 868 set \$1;
#X msg 370 829 set \$1;
#X msg 351 850 set \$1;
#X text 484 245 sig~ speed -100-;
#X floatatom 485 225 5 0 0 0 - - -;
#X floatatom 522 225 5 0 0 0 - - -;
#X floatatom 557 225 5 0 0 0 - - -;
#X obj 292 765 t b f;
#X obj 458 784 f;
#X obj 493 783 f;
#X obj 528 782 f;
#X obj 332 741 t b f;
#X obj 366 720 t b f;
#X obj 459 821 - 0;
#X obj 494 820 - 3;
#X obj 529 819 - 7;
#X text 497 203 harmo 0-3-7;
#X obj 521 884 r d1;
#X obj 521 864 r m1;
#X obj 590 848 r m2;
#X obj 590 868 r d2;
#X obj 497 864 * 1;
#X obj 497 885 / 1;
#X obj 566 848 * 1;
#X obj 566 868 / 1;
#X obj 528 724 r modg;
#X obj 877 911 mtof;
#X obj 877 935 sig~;
#X obj 842 934 mtof;
#X obj 842 959 sig~;
#X obj 807 959 mtof;
#X obj 807 984 sig~;
#X obj 807 1039 *~ 0.4;
#X obj 807 1064 throw~ RRR;
#X msg 775 682 19.44 50 48.99;
#X obj 793 726 t f f f;
#X floatatom 708 182 5 0 0 0 - - -;
#X obj 848 188 vsl 15 60 0 1 0 0 empty empty empty 0 -9 0 10 -258113
-262144 -1 2360 1;
#X msg 848 164 0;
#X floatatom 848 259 5 0 100 0 - - -;
#X msg 881 164 0.4;
#X floatatom 736 266 5 0 0 0 - - -;
#X floatatom 773 266 5 0 0 0 - - -;
#X floatatom 808 266 5 0 0 0 - - -;
#X msg 637 870 set \$1;
#X msg 692 831 set \$1;
#X msg 673 852 set \$1;
#X text 737 249 sig~ speed -100-;
#X floatatom 738 229 5 0 0 0 - - -;
#X floatatom 775 229 5 0 0 0 - - -;
#X floatatom 810 229 5 0 0 0 - - -;
#X obj 614 767 t b f;
#X obj 780 786 f;
#X obj 815 785 f;
#X obj 850 784 f;
#X obj 654 743 t b f;
#X obj 688 722 t b f;
#X obj 781 823 - 0;
#X obj 816 822 - 3;
#X obj 851 821 - 7;
#X text 750 207 harmo 0-3-7;
#X obj 843 886 r d1;
#X obj 843 866 r m1;
#X obj 912 850 r m2;
#X obj 912 870 r d2;
#X obj 819 866 * 1;
#X obj 819 887 / 1;
#X obj 888 850 * 1;
#X obj 888 870 / 1;
#X obj 850 726 r modg;
#X obj 117 155 hsl 128 15 0 127 0 0 empty \$0-tone empty -2 -8 0 10
-261234 -258113 -1 3335 1;
#X obj 711 162 hsl 128 15 0 127 0 0 empty \$0-tone empty -2 -8 0 10
-203904 -258113 -1 3335 1;
#X obj 555 957 tabosc4~ cameraG2;
#X obj 520 982 tabosc4~ cameraG2;
#X obj 485 1006 tabosc4~ cameraG2;
#X obj 877 959 tabosc4~ cameraB2;
#X obj 842 984 tabosc4~ cameraB2;
#X obj 807 1008 tabosc4~ cameraB2;
#X obj 84 602 unpack f f f;
#X obj 124 222 bng 14 250 50 0 empty empty empty 17 7 0 10 -262144
-1 -1;
#X msg 84 562 0 0 0;
#X msg 89 580 0 3 7;
#X obj 106 222 bng 14 250 50 0 empty empty empty 17 7 0 10 -4034 -1
-1;
#X text 105 208 3 - 0;
#X obj 426 626 unpack f f f;
#X obj 464 228 bng 14 250 50 0 empty empty empty 17 7 0 10 -262144
-1 -1;
#X msg 426 586 0 0 0;
#X msg 431 604 0 3 7;
#X obj 446 228 bng 14 250 50 0 empty empty empty 17 7 0 10 -4034 -1
-1;
#X text 445 214 3 - 0;
#X obj 756 654 unpack f f f;
#X obj 720 230 bng 14 250 50 0 empty empty empty 17 7 0 10 -262144
-1 -1;
#X msg 714 612 0 0 0;
#X msg 719 630 0 3 7;
#X obj 702 231 bng 14 250 50 0 empty empty empty 17 7 0 10 -4034 -1
-1;
#X text 701 217 3 - 0;
#X obj 668 46 vsl 15 60 0 6 0 0 empty empty empty 0 -9 0 10 -260097
-258113 -1 0 1;
#X floatatom 668 117 5 0 100 0 - - -;
#X obj 392 109 bng 15 250 50 0 empty empty 30 17 7 0 10 -159808 -1
-1;
#X msg 434 61 30;
#X msg 506 133 42;
#X msg 534 134 40;
#X msg 567 134 52;
#X msg 593 134 30;
#X msg 747 135 59;
#X msg 778 135 52;
#X msg 811 138 30;
#X text 22 97 Main volume;
#X obj 1466 -109 s m1;
#X obj 1466 -89 s d1;
#X obj 1497 -108 s m2;
#X obj 1529 -109 s m3;
#X obj 1528 -89 s d3;
#X obj 1561 -89 s d4;
#X obj 1560 -109 s m4;
#X obj 1591 -109 s m5;
#X obj 1591 -89 s d5;
#X obj 1624 -109 s m6;
#X obj 1624 -89 s d6;
#X msg 1474 -148 3;
#X msg 1474 -129 2;
#X msg 1502 -148 9;
#X msg 1502 -129 8;
#X msg 1537 -147 27;
#X msg 1537 -128 16;
#X msg 1570 -147 81;
#X msg 1570 -128 64;
#X msg 1599 -147 243;
#X msg 1599 -128 128;
#X msg 1632 -147 729;
#X msg 1632 -128 512;
#X obj 1542 -171 bng 15 250 50 0 empty empty Pythagore 0 -6 0 8 -262131
-1 -1;
#X obj 1068 -111 s m1;
#X obj 1068 -91 s d1;
#X obj 1099 -110 s m2;
#X obj 1131 -111 s m3;
#X obj 1130 -91 s d3;
#X obj 1163 -91 s d4;
#X obj 1162 -111 s m4;
#X obj 1193 -111 s m5;
#X obj 1193 -91 s d5;
#X obj 1226 -111 s m6;
#X obj 1226 -91 s d6;
#X obj 1144 -173 bng 15 250 50 0 empty empty Majeur 0 -6 0 8 -253782
-1 -1;
#X msg 1076 -150 9;
#X msg 1076 -131 8;
#X msg 1104 -152 81;
#X msg 1104 -131 64;
#X msg 1139 -149 4;
#X msg 1139 -130 3;
#X msg 1172 -149 3;
#X msg 1172 -130 2;
#X msg 1201 -149 27;
#X msg 1201 -130 16;
#X msg 1234 -149 243;
#X msg 1234 -130 128;
#X obj 1099 -91 s d2;
#X obj 1497 -89 s d2;
#X obj 1065 -234 s m1;
#X obj 1065 -214 s d1;
#X obj 1096 -233 s m2;
#X obj 1128 -234 s m3;
#X obj 1127 -214 s d3;
#X obj 1160 -214 s d4;
#X obj 1159 -234 s m4;
#X obj 1190 -234 s m5;
#X obj 1190 -214 s d5;
#X obj 1223 -234 s m6;
#X obj 1223 -214 s d6;
#X obj 1141 -296 bng 15 250 50 0 empty empty Mineur 0 -6 0 8 -236374
-1 -1;
#X msg 1073 -273 9;
#X msg 1073 -254 8;
#X msg 1136 -272 4;
#X msg 1136 -253 3;
#X msg 1169 -272 3;
#X msg 1169 -253 2;
#X obj 1096 -214 s d2;
#X msg 1101 -275 32;
#X msg 1101 -254 27;
#X msg 1198 -272 128;
#X msg 1198 -253 81;
#X msg 1231 -272 16;
#X msg 1231 -253 9;
#X obj 1260 -233 s m1;
#X obj 1260 -213 s d1;
#X obj 1291 -232 s m2;
#X obj 1323 -233 s m3;
#X obj 1322 -213 s d3;
#X obj 1355 -213 s d4;
#X obj 1354 -233 s m4;
#X obj 1385 -233 s m5;
#X obj 1385 -213 s d5;
#X obj 1418 -233 s m6;
#X obj 1418 -213 s d6;
#X obj 1336 -295 bng 15 250 50 0 empty empty Chinoise 0 -6 0 8 -241291
-1 -1;
#X msg 1268 -272 9;
#X msg 1268 -253 8;
#X obj 1291 -213 s d2;
#X msg 1393 -252 81;
#X msg 1426 -252 9;
#X msg 1296 -275 81;
#X msg 1296 -253 64;
#X msg 1331 -271 3;
#X msg 1331 -252 2;
#X msg 1364 -271 27;
#X msg 1364 -252 16;
#X msg 1393 -271 0;
#X msg 1426 -271 0;
#X obj 1393 -288 bng 10 250 50 0 empty empty empty 0 -6 0 8 -258699
-1 -1;
#X obj 1426 -288 bng 10 250 50 0 empty empty empty 0 -6 0 8 -258699
-1 -1;
#X obj 1262 -111 s m1;
#X obj 1262 -91 s d1;
#X obj 1293 -110 s m2;
#X obj 1325 -111 s m3;
#X obj 1324 -91 s d3;
#X obj 1357 -91 s d4;
#X obj 1356 -111 s m4;
#X obj 1387 -111 s m5;
#X obj 1387 -91 s d5;
#X obj 1420 -111 s m6;
#X obj 1420 -91 s d6;
#X obj 1338 -173 bng 15 250 50 0 empty empty Majeur_Zarlinienne 0 -6
0 8 -253782 -1 -1;
#X msg 1270 -150 9;
#X msg 1270 -131 8;
#X msg 1333 -149 4;
#X msg 1333 -130 3;
#X obj 1293 -91 s d2;
#X msg 1298 -152 5;
#X msg 1298 -131 4;
#X msg 1366 -149 3;
#X msg 1366 -130 2;
#X msg 1394 -149 5;
#X msg 1395 -130 3;
#X msg 1428 -130 8;
#X msg 1428 -149 15;
#X text 1194 -188 le comma pythagoricien;
#X obj 1185 -172 s modg;
#X obj 1370 -169 s modg;
#X obj 1179 -297 s modg;
#X obj 1353 -296 s modg;
#X obj 1580 -171 s modg;
#X obj 988 -295 bng 15 250 50 0 empty empty Mineur 0 -6 0 8 -236374
-1 -1;
#X obj 987 -263 bng 15 250 50 0 empty empty Chinoise 0 -6 0 8 -241291
-1 -1;
#X obj 987 -225 bng 15 250 50 0 empty empty Majeur 0 -6 0 8 -253782
-1 -1;
#X obj 986 -189 bng 15 250 50 0 empty empty Majeur_Zarlinienne 0 -6
0 8 -253782 -1 -1;
#X obj 987 -156 bng 15 250 50 0 empty empty Pythagore 0 -6 0 8 -262131
-1 -1;
#X obj 533 16 bng 15 250 50 0 empty empty Mineur 0 -6 0 8 -236374 -1
-1;
#X obj 570 15 bng 15 250 50 0 empty empty Chinoise 0 -6 0 8 -241291
-1 -1;
#X obj 615 15 bng 15 250 50 0 empty empty Majeur 0 -6 0 8 -253782 -1
-1;
#X obj 649 17 bng 15 250 50 0 empty empty Majeur_Zarlinienne 0 -6 0
8 -253782 -1 -1;
#X obj 744 18 bng 15 250 50 0 empty empty Pythagore 0 -6 0 8 -262131
-1 -1;
#X obj 798 18 bng 14 250 50 0 empty empty 0_3_7 0 -8 0 8 -4034 -1 -1
;
#X obj 839 18 bng 14 250 50 0 empty empty 0_0_0 0 -8 0 8 -262144 -1
-1;
#X msg 345 -95 \; cameraB2 resize 2051;
#X msg 346 -57 \; cameraR2 resize 2051;
#X obj 197 45 bng 19 250 50 0 empty empty 131 0 -6 0 10 -260523 -4034
-1;
#X obj 230 47 bng 19 250 50 0 empty empty 259 0 -6 0 10 -260523 -4034
-1;
#X obj 261 47 bng 19 250 50 0 empty empty 352 0 -6 0 10 -260523 -4034
-1;
#X obj 291 46 bng 19 250 50 0 empty empty 515 0 -6 0 10 -260523 -4034
-1;
#X obj 319 46 bng 19 250 50 0 empty empty 1027 0 -6 0 10 -260523 -4034
-1;
#X obj 346 46 bng 19 250 50 0 empty empty 2051 0 -6 0 10 -260523 -4034
-1;
#X text 228 9 Taille buffer audio;
#N canvas 0 22 450 300 (subpatch) 0;
#X array cameraR2 1027 float 2;
#X coords 0 1 1027 -1 350 140 1 0 0;
#X restore 721 348 graph;
#N canvas 0 22 450 300 (subpatch) 0;
#X array cameraG2 1027 float 2;
#X coords 0 1 1027 -1 350 140 1 0 0;
#X restore 10 347 graph;
#N canvas 0 22 450 300 (subpatch) 0;
#X array cameraB2 1027 float 2;
#X coords 0 1 1027 -1 350 140 1 0 0;
#X restore 364 348 graph;
#X text 947 522 INVERSION DROITE GAUCHE DS BUFFER;
#X obj 978 127 r ib;
#X connect 2 0 4 0;
#X connect 3 0 8 0;
#X connect 4 0 5 0;
#X connect 5 0 9 0;
#X connect 6 0 9 1;
#X connect 7 0 8 1;
#X connect 8 0 149 0;
#X connect 9 0 3 0;
#X connect 10 0 17 0;
#X connect 11 0 15 0;
#X connect 12 0 16 0;
#X connect 12 0 13 0;
#X connect 13 0 14 0;
#X connect 15 0 12 0;
#X connect 16 0 14 1;
#X connect 17 0 11 0;
#X connect 18 0 20 0;
#X connect 19 0 24 0;
#X connect 20 0 21 0;
#X connect 21 0 25 0;
#X connect 22 0 25 1;
#X connect 23 0 24 1;
#X connect 24 0 148 0;
#X connect 25 0 19 0;
#X connect 26 0 28 0;
#X connect 27 0 32 0;
#X connect 28 0 29 0;
#X connect 29 0 33 0;
#X connect 30 0 33 1;
#X connect 31 0 32 1;
#X connect 32 0 147 0;
#X connect 33 0 27 0;
#X connect 34 0 51 0;
#X connect 35 0 293 0;
#X connect 36 0 20 0;
#X connect 37 0 28 0;
#X connect 38 0 4 0;
#X connect 39 0 5 0;
#X connect 40 0 21 0;
#X connect 41 0 16 1;
#X connect 42 0 13 1;
#X connect 43 0 29 0;
#X connect 44 0 48 0;
#X connect 45 0 49 0;
#X connect 45 0 46 0;
#X connect 46 0 76 0;
#X connect 46 0 47 0;
#X connect 48 0 45 0;
#X connect 49 0 76 1;
#X connect 49 0 47 1;
#X connect 50 0 44 0;
#X connect 51 0 46 1;
#X connect 51 0 49 1;
#X connect 53 0 50 0;
#X connect 54 0 293 0;
#X connect 56 0 60 0;
#X connect 56 0 65 0;
#X connect 57 0 58 0;
#X connect 59 0 61 0;
#X connect 60 0 62 0;
#X connect 60 1 59 1;
#X connect 61 0 63 0;
#X connect 62 0 59 0;
#X connect 64 0 56 0;
#X connect 65 0 57 0;
#X connect 66 0 64 0;
#X connect 67 0 66 0;
#X connect 68 0 66 0;
#X connect 70 0 4 0;
#X connect 71 0 20 0;
#X connect 72 0 28 0;
#X connect 73 0 293 0;
#X connect 74 0 76 0;
#X connect 75 0 76 0;
#X connect 77 0 76 0;
#X connect 79 0 78 0;
#X connect 79 1 80 0;
#X connect 79 2 81 0;
#X connect 82 0 79 0;
#X connect 83 0 82 0;
#X connect 84 0 293 0;
#X connect 85 0 92 0;
#X connect 86 0 85 0;
#X connect 87 0 86 0;
#X connect 88 0 17 0;
#X connect 89 0 90 0;
#X connect 90 0 91 0;
#X connect 91 0 5 0;
#X connect 91 0 21 0;
#X connect 91 0 29 0;
#X connect 92 0 214 0;
#X connect 92 0 294 0;
#X connect 92 0 293 0;
#X connect 93 0 95 0;
#X connect 94 0 53 0;
#X connect 95 0 91 0;
#X connect 96 0 294 0;
#X connect 97 0 214 0;
#X connect 98 0 97 0;
#X connect 98 0 84 0;
#X connect 98 0 96 0;
#X connect 99 0 91 0;
#X connect 100 0 17 0;
#X connect 101 0 103 0;
#X connect 101 0 106 0;
#X connect 102 0 101 0;
#X connect 103 0 29 0;
#X connect 105 0 28 0;
#X connect 106 0 21 0;
#X connect 107 0 150 1;
#X connect 107 0 151 1;
#X connect 107 0 152 1;
#X connect 110 0 122 0;
#X connect 110 1 123 0;
#X connect 110 2 124 0;
#X connect 110 3 107 0;
#X connect 111 0 67 0;
#X connect 112 0 66 0;
#X connect 113 0 66 0;
#X connect 114 0 293 0;
#X connect 115 0 294 0;
#X connect 116 0 214 0;
#X connect 117 0 114 0;
#X connect 117 0 115 0;
#X connect 117 0 116 0;
#X connect 118 0 91 0;
#X connect 119 0 85 0;
#X connect 120 0 119 0;
#X connect 122 0 150 0;
#X connect 123 0 151 0;
#X connect 124 0 152 0;
#X connect 125 0 122 1;
#X connect 125 0 123 1;
#X connect 125 0 124 1;
#X connect 126 0 122 1;
#X connect 127 0 124 1;
#X connect 128 0 123 1;
#X connect 129 0 125 0;
#X connect 130 0 132 0;
#X connect 131 0 129 0;
#X connect 132 0 129 0;
#X connect 134 0 110 0;
#X connect 134 1 108 0;
#X connect 147 0 41 0;
#X connect 147 0 42 0;
#X connect 148 0 41 0;
#X connect 148 0 42 0;
#X connect 149 0 41 0;
#X connect 149 0 42 0;
#X connect 157 0 158 0;
#X connect 157 0 179 0;
#X connect 158 0 165 0;
#X connect 159 0 160 0;
#X connect 159 0 180 0;
#X connect 160 0 166 0;
#X connect 161 0 162 0;
#X connect 161 0 178 0;
#X connect 162 0 167 0;
#X connect 163 0 164 0;
#X connect 165 0 163 0;
#X connect 166 0 163 0;
#X connect 167 0 163 0;
#X connect 169 0 186 0;
#X connect 169 1 187 0;
#X connect 169 2 188 0;
#X connect 170 0 169 0;
#X connect 171 0 173 0;
#X connect 172 0 171 0;
#X connect 173 0 163 1;
#X connect 174 0 171 0;
#X connect 175 0 162 0;
#X connect 176 0 160 0;
#X connect 177 0 158 0;
#X connect 178 0 175 0;
#X connect 179 0 177 0;
#X connect 180 0 176 0;
#X connect 182 0 185 0;
#X connect 183 0 189 0;
#X connect 184 0 190 0;
#X connect 185 0 186 0;
#X connect 185 1 191 1;
#X connect 186 0 191 0;
#X connect 187 0 192 0;
#X connect 188 0 193 0;
#X connect 189 0 187 0;
#X connect 189 1 192 1;
#X connect 190 0 188 0;
#X connect 190 1 193 1;
#X connect 191 0 161 0;
#X connect 192 0 199 0;
#X connect 193 0 201 0;
#X connect 195 0 200 1;
#X connect 196 0 199 1;
#X connect 197 0 201 1;
#X connect 198 0 202 1;
#X connect 199 0 200 0;
#X connect 200 0 159 0;
#X connect 201 0 202 0;
#X connect 202 0 157 0;
#X connect 203 0 186 0;
#X connect 203 0 188 0;
#X connect 203 0 187 0;
#X connect 204 0 205 0;
#X connect 204 0 224 0;
#X connect 205 0 295 0;
#X connect 206 0 207 0;
#X connect 206 0 225 0;
#X connect 207 0 296 0;
#X connect 208 0 209 0;
#X connect 208 0 223 0;
#X connect 209 0 297 0;
#X connect 210 0 211 0;
#X connect 213 0 231 0;
#X connect 213 1 232 0;
#X connect 213 2 233 0;
#X connect 214 0 215 0;
#X connect 215 0 213 0;
#X connect 216 0 218 0;
#X connect 217 0 216 0;
#X connect 218 0 210 1;
#X connect 219 0 216 0;
#X connect 220 0 209 0;
#X connect 221 0 207 0;
#X connect 222 0 205 0;
#X connect 223 0 220 0;
#X connect 224 0 222 0;
#X connect 225 0 221 0;
#X connect 227 0 230 0;
#X connect 228 0 234 0;
#X connect 229 0 235 0;
#X connect 230 0 231 0;
#X connect 230 1 236 1;
#X connect 231 0 236 0;
#X connect 232 0 237 0;
#X connect 233 0 238 0;
#X connect 234 0 232 0;
#X connect 234 1 237 1;
#X connect 235 0 233 0;
#X connect 235 1 238 1;
#X connect 236 0 208 0;
#X connect 237 0 244 0;
#X connect 238 0 246 0;
#X connect 240 0 245 1;
#X connect 241 0 244 1;
#X connect 242 0 246 1;
#X connect 243 0 247 1;
#X connect 244 0 245 0;
#X connect 245 0 206 0;
#X connect 246 0 247 0;
#X connect 247 0 204 0;
#X connect 248 0 231 0;
#X connect 248 0 233 0;
#X connect 248 0 232 0;
#X connect 249 0 250 0;
#X connect 249 0 268 0;
#X connect 250 0 298 0;
#X connect 251 0 252 0;
#X connect 251 0 269 0;
#X connect 252 0 299 0;
#X connect 253 0 254 0;
#X connect 253 0 267 0;
#X connect 254 0 300 0;
#X connect 255 0 256 0;
#X connect 258 0 275 0;
#X connect 258 1 276 0;
#X connect 258 2 277 0;
#X connect 259 0 258 0;
#X connect 260 0 262 0;
#X connect 261 0 260 0;
#X connect 262 0 255 1;
#X connect 263 0 260 0;
#X connect 264 0 254 0;
#X connect 265 0 252 0;
#X connect 266 0 250 0;
#X connect 267 0 264 0;
#X connect 268 0 266 0;
#X connect 269 0 265 0;
#X connect 271 0 274 0;
#X connect 272 0 278 0;
#X connect 273 0 279 0;
#X connect 274 0 275 0;
#X connect 274 1 280 1;
#X connect 275 0 280 0;
#X connect 276 0 281 0;
#X connect 277 0 282 0;
#X connect 278 0 276 0;
#X connect 278 1 281 1;
#X connect 279 0 277 0;
#X connect 279 1 282 1;
#X connect 280 0 253 0;
#X connect 281 0 288 0;
#X connect 282 0 290 0;
#X connect 284 0 289 1;
#X connect 285 0 288 1;
#X connect 286 0 290 1;
#X connect 287 0 291 1;
#X connect 288 0 289 0;
#X connect 289 0 251 0;
#X connect 290 0 291 0;
#X connect 291 0 249 0;
#X connect 292 0 275 0;
#X connect 292 0 277 0;
#X connect 292 0 276 0;
#X connect 293 0 170 0;
#X connect 294 0 259 0;
#X connect 295 0 210 0;
#X connect 296 0 210 0;
#X connect 297 0 210 0;
#X connect 298 0 255 0;
#X connect 299 0 255 0;
#X connect 300 0 255 0;
#X connect 301 0 182 0;
#X connect 301 1 183 0;
#X connect 301 2 184 0;
#X connect 302 0 303 0;
#X connect 303 0 301 0;
#X connect 304 0 301 0;
#X connect 305 0 304 0;
#X connect 307 0 227 0;
#X connect 307 1 228 0;
#X connect 307 2 229 0;
#X connect 308 0 309 0;
#X connect 309 0 307 0;
#X connect 310 0 307 0;
#X connect 311 0 310 0;
#X connect 313 0 271 0;
#X connect 313 1 272 0;
#X connect 313 2 273 0;
#X connect 314 0 315 0;
#X connect 315 0 313 0;
#X connect 316 0 313 0;
#X connect 317 0 316 0;
#X connect 319 0 320 0;
#X connect 320 0 260 0;
#X connect 320 0 171 0;
#X connect 320 0 216 0;
#X connect 321 0 322 0;
#X connect 322 0 85 0;
#X connect 323 0 214 0;
#X connect 324 0 214 0;
#X connect 325 0 214 0;
#X connect 326 0 214 0;
#X connect 327 0 294 0;
#X connect 328 0 294 0;
#X connect 329 0 294 0;
#X connect 342 0 331 0;
#X connect 343 0 332 0;
#X connect 344 0 333 0;
#X connect 345 0 380 0;
#X connect 346 0 334 0;
#X connect 347 0 335 0;
#X connect 348 0 337 0;
#X connect 349 0 336 0;
#X connect 350 0 338 0;
#X connect 351 0 339 0;
#X connect 352 0 340 0;
#X connect 353 0 341 0;
#X connect 354 0 342 0;
#X connect 354 0 343 0;
#X connect 354 0 344 0;
#X connect 354 0 345 0;
#X connect 354 0 346 0;
#X connect 354 0 347 0;
#X connect 354 0 348 0;
#X connect 354 0 349 0;
#X connect 354 0 350 0;
#X connect 354 0 351 0;
#X connect 354 0 352 0;
#X connect 354 0 353 0;
#X connect 354 0 463 0;
#X connect 366 0 367 0;
#X connect 366 0 368 0;
#X connect 366 0 369 0;
#X connect 366 0 370 0;
#X connect 366 0 371 0;
#X connect 366 0 372 0;
#X connect 366 0 373 0;
#X connect 366 0 374 0;
#X connect 366 0 375 0;
#X connect 366 0 376 0;
#X connect 366 0 377 0;
#X connect 366 0 378 0;
#X connect 366 0 459 0;
#X connect 367 0 355 0;
#X connect 368 0 356 0;
#X connect 369 0 357 0;
#X connect 370 0 379 0;
#X connect 371 0 358 0;
#X connect 372 0 359 0;
#X connect 373 0 361 0;
#X connect 374 0 360 0;
#X connect 375 0 362 0;
#X connect 376 0 363 0;
#X connect 377 0 364 0;
#X connect 378 0 365 0;
#X connect 392 0 393 0;
#X connect 392 0 394 0;
#X connect 392 0 400 0;
#X connect 392 0 401 0;
#X connect 392 0 395 0;
#X connect 392 0 396 0;
#X connect 392 0 397 0;
#X connect 392 0 398 0;
#X connect 392 0 402 0;
#X connect 392 0 403 0;
#X connect 392 0 404 0;
#X connect 392 0 405 0;
#X connect 392 0 461 0;
#X connect 393 0 381 0;
#X connect 394 0 382 0;
#X connect 395 0 384 0;
#X connect 396 0 385 0;
#X connect 397 0 387 0;
#X connect 398 0 386 0;
#X connect 400 0 383 0;
#X connect 401 0 399 0;
#X connect 402 0 388 0;
#X connect 403 0 389 0;
#X connect 404 0 390 0;
#X connect 405 0 391 0;
#X connect 417 0 418 0;
#X connect 417 0 419 0;
#X connect 417 0 423 0;
#X connect 417 0 424 0;
#X connect 417 0 425 0;
#X connect 417 0 426 0;
#X connect 417 0 427 0;
#X connect 417 0 428 0;
#X connect 417 0 429 0;
#X connect 417 0 421 0;
#X connect 417 0 430 0;
#X connect 417 0 422 0;
#X connect 417 0 462 0;
#X connect 418 0 406 0;
#X connect 419 0 407 0;
#X connect 421 0 414 0;
#X connect 422 0 416 0;
#X connect 423 0 408 0;
#X connect 424 0 420 0;
#X connect 425 0 409 0;
#X connect 426 0 410 0;
#X connect 427 0 412 0;
#X connect 428 0 411 0;
#X connect 429 0 413 0;
#X connect 430 0 415 0;
#X connect 431 0 429 0;
#X connect 432 0 430 0;
#X connect 444 0 445 0;
#X connect 444 0 446 0;
#X connect 444 0 450 0;
#X connect 444 0 451 0;
#X connect 444 0 447 0;
#X connect 444 0 448 0;
#X connect 444 0 452 0;
#X connect 444 0 453 0;
#X connect 444 0 454 0;
#X connect 444 0 455 0;
#X connect 444 0 457 0;
#X connect 444 0 456 0;
#X connect 444 0 460 0;
#X connect 445 0 433 0;
#X connect 446 0 434 0;
#X connect 447 0 436 0;
#X connect 448 0 437 0;
#X connect 450 0 435 0;
#X connect 451 0 449 0;
#X connect 452 0 439 0;
#X connect 453 0 438 0;
#X connect 454 0 440 0;
#X connect 455 0 441 0;
#X connect 456 0 443 0;
#X connect 457 0 442 0;
#X connect 464 0 392 0;
#X connect 465 0 417 0;
#X connect 466 0 366 0;
#X connect 467 0 444 0;
#X connect 468 0 354 0;
#X connect 469 0 464 0;
#X connect 470 0 465 0;
#X connect 471 0 466 0;
#X connect 472 0 467 0;
#X connect 473 0 468 0;
#X connect 474 0 317 0;
#X connect 474 0 311 0;
#X connect 474 0 305 0;
#X connect 475 0 314 0;
#X connect 475 0 302 0;
#X connect 475 0 308 0;
#X connect 478 0 135 0;
#X connect 478 0 137 0;
#X connect 478 0 136 0;
#X connect 479 0 140 0;
#X connect 479 0 139 0;
#X connect 479 0 138 0;
#X connect 480 0 141 0;
#X connect 480 0 143 0;
#X connect 480 0 142 0;
#X connect 481 0 146 0;
#X connect 481 0 145 0;
#X connect 481 0 144 0;
#X connect 482 0 153 0;
#X connect 482 0 155 0;
#X connect 482 0 154 0;
#X connect 483 0 156 0;
#X connect 483 0 477 0;
#X connect 483 0 476 0;
#X connect 489 0 263 0;
#X connect 489 0 219 0;
#X connect 489 0 174 0;
#X coords 0 -1 1 1 1350 550 1 0 0;
#X restore 163 196 pd ImgAudioAnalys;
#X obj 1 761 cnv 15 450 300 empty empty titres 20 12 0 14 -260097 -66577
0;
#X obj 452 761 cnv 15 550 300 empty empty A2V 20 20 0 21 -261185 -66577
0;
#X text 651 164 Adapt nbre samples = fct(width cam) dans sampler;
#X obj 28 471 loadbang;
#X msg 28 501 \; pd dsp 1;
#N canvas 6 56 909 590 midioutput 0;
#X obj 17 8 cnv 15 870 450 empty empty Envoi_du_MIDI_! 20 12 0 14 -233017
-4 0;
#X obj 69 377 makenote 121 100;
#X obj 69 432 noteout 1;
#X obj 69 78 r \$0-Xcoord;
#X obj 357 77 r \$0-Ycoord;
#X obj 178 89 r \$0-Tblob;
#X obj 69 275 * 127;
#X floatatom 207 197 5 0 0 0 - - -;
#X floatatom 259 65 5 0 0 0 - - -;
#X obj 177 169 average 1;
#X floatatom 115 308 5 0 0 0 - - -;
#X obj 177 317 timer;
#X obj 177 234 t b;
#X obj 177 263 tgl 15 0 empty empty empty 17 7 0 10 -262144 -1 -1 0
1;
#X obj 177 291 sel 0 1;
#X floatatom 237 318 5 0 0 0 - - -;
#X obj 178 147 change;
#X obj 110 233 moses 3;
#X floatatom 322 305 5 0 0 0 - - -;
#X floatatom 417 394 5 0 0 0 - - -;
#X obj 357 130 maxlib/scale 0 1 36 60;
#X obj 357 352 makenote 121 160;
#X obj 384 231 random 127;
#X obj 384 293 + 0;
#X text 428 411 qfluid batterie;
#X obj 443 188 hsl 128 15 0 127 0 0 empty empty empty -2 -8 0 10 -262144
-1 -1 0 1;
#X floatatom 440 208 5 0 0 0 - - -;
#X obj 417 274 hsl 128 15 0 127 0 0 empty empty empty -2 -8 0 10 -262144
-1 -1 0 1;
#X floatatom 414 294 5 0 0 0 - - -;
#X obj 454 247 expr 127 - $f1;
#X obj 357 412 noteout 10;
#X obj 597 299 * 127;
#X floatatom 653 328 5 0 0 0 - - -;
#X obj 597 78 r \$0-Xcoord;
#X obj 597 411 noteout 2;
#X obj 597 356 makenote 121 250;
#X floatatom 672 395 5 0 0 0 - - -;
#X floatatom 607 329 5 0 0 0 - - -;
#X obj 643 203 random 127;
#X obj 597 136 t f b;
#X obj 643 265 + 0;
#X floatatom 701 327 5 0 0 0 - - -;
#X obj 702 160 hsl 128 15 0 127 0 0 empty empty empty -2 -8 0 10 -262144
-1 -1 0 1;
#X floatatom 699 180 5 0 0 0 - - -;
#X obj 676 246 hsl 128 15 0 127 0 0 empty empty empty -2 -8 0 10 -262144
-1 -1 0 1;
#X floatatom 673 266 5 0 0 0 - - -;
#X obj 713 219 expr 127 - $f1;
#X obj 597 108 speedlim 120;
#X floatatom 26 346 5 0 0 0 - - -;
#X floatatom 245 280 5 0 0 0 - - -;
#X obj 144 429 s note1;
#X text 196 10 Brancher aussi adc 1 et 2 sur sorties synthé;
#X obj 562 486 hsl 128 15 0 127 0 0 empty empty empty -2 -8 0 10 -262144
-1 -1 0 1;
#X floatatom 559 506 5 0 0 0 - - -;
#X obj 582 572 hsl 128 15 0 127 0 0 empty empty empty -2 -8 0 10 -262144
-1 -1 0 1;
#X floatatom 595 604 5 0 0 0 - - -;
#X obj 588 535 expr 127 - $f1;
#X obj 357 204 t f b b;
#X floatatom 485 629 5 0 0 0 - - -;
#X floatatom 458 159 5 0 0 0 - - -;
#X obj 357 269 int;
#X obj 503 529 random 127;
#X obj 69 324 int;
#X floatatom 451 319 5 0 0 0 - - -;
#X obj 357 168 speedlim 120;
#X obj 178 119 maxlib/scale 0 0.01 0 127;
#X floatatom 224 392 5 0 0 0 - - -;
#X obj 163 353 maxlib/scale 50 200 50 500;
#X obj 487 55 random 24;
#X obj 487 82 + 36;
#X floatatom 485 106 5 0 0 0 - - -;
#X obj 487 10 tgl 15 0 empty empty empty 17 7 0 10 -262144 -1 -1 0
1;
#X obj 488 31 metro 250;
#X obj 205 523 pgmout 10;
#X floatatom 206 483 5 0 0 0 - - -;
#X obj 503 591 + 90;
#X floatatom 563 24 5 0 0 0 - - -;
#X obj 324 465 noteout 10;
#X floatatom 556 56 5 0 0 0 - - -;
#X text 295 492 evandro jazz battery + tr909;
#X floatatom 533 89 5 0 0 0 - - -;
#X obj 38 140 random 24;
#X obj 38 167 + 36;
#X floatatom 36 191 5 0 0 0 - - -;
#X obj 38 95 tgl 15 0 empty empty empty 17 7 0 10 -262144 -1 -1 0 1
;
#X obj 39 116 metro 250;
#X floatatom 114 109 5 0 0 0 - - -;
#X floatatom 107 141 5 0 0 0 - - -;
#X floatatom 84 174 5 0 0 0 - - -;
#X connect 1 0 2 0;
#X connect 1 0 50 0;
#X connect 1 1 2 1;
#X connect 6 0 62 0;
#X connect 8 0 65 2;
#X connect 9 0 12 0;
#X connect 10 0 1 1;
#X connect 11 0 15 0;
#X connect 11 0 67 0;
#X connect 12 0 13 0;
#X connect 13 0 14 0;
#X connect 14 0 11 0;
#X connect 14 1 11 1;
#X connect 16 0 9 0;
#X connect 17 1 1 1;
#X connect 17 1 49 0;
#X connect 18 0 21 0;
#X connect 19 0 30 2;
#X connect 20 0 59 0;
#X connect 20 0 64 0;
#X connect 21 0 30 0;
#X connect 21 0 77 0;
#X connect 21 1 30 1;
#X connect 21 1 77 1;
#X connect 22 0 23 0;
#X connect 23 0 21 1;
#X connect 23 0 63 0;
#X connect 25 0 26 0;
#X connect 26 0 22 1;
#X connect 26 0 29 0;
#X connect 27 0 28 0;
#X connect 28 0 23 1;
#X connect 29 0 27 0;
#X connect 31 0 35 0;
#X connect 32 0 35 1;
#X connect 35 0 34 0;
#X connect 35 1 34 1;
#X connect 36 0 34 2;
#X connect 37 0 35 0;
#X connect 38 0 40 0;
#X connect 39 0 31 0;
#X connect 39 1 38 0;
#X connect 40 0 35 1;
#X connect 41 0 35 2;
#X connect 42 0 43 0;
#X connect 43 0 38 1;
#X connect 43 0 46 0;
#X connect 44 0 45 0;
#X connect 45 0 40 1;
#X connect 46 0 44 0;
#X connect 47 0 39 0;
#X connect 48 0 1 0;
#X connect 52 0 53 0;
#X connect 53 0 56 0;
#X connect 53 0 61 1;
#X connect 54 0 55 0;
#X connect 56 0 54 0;
#X connect 57 0 60 0;
#X connect 57 1 22 0;
#X connect 57 2 61 0;
#X connect 60 0 21 0;
#X connect 61 0 75 0;
#X connect 62 0 1 0;
#X connect 64 0 57 0;
#X connect 65 0 16 0;
#X connect 65 0 17 0;
#X connect 67 0 1 2;
#X connect 67 0 66 0;
#X connect 68 0 69 0;
#X connect 69 0 70 0;
#X connect 70 0 57 0;
#X connect 71 0 72 0;
#X connect 72 0 68 0;
#X connect 74 0 73 0;
#X connect 75 0 21 2;
#X connect 75 0 58 0;
#X connect 76 0 72 1;
#X connect 78 0 68 1;
#X connect 80 0 69 1;
#X connect 81 0 82 0;
#X connect 82 0 83 0;
#X connect 83 0 62 0;
#X connect 84 0 85 0;
#X connect 85 0 81 0;
#X connect 86 0 85 1;
#X connect 87 0 81 1;
#X connect 88 0 82 1;
#X restore 82 983 pd midioutput;
#N canvas 1009 481 765 535 playeraudio2 0;
#N canvas 590 137 1277 804 audiosf 0;
#X obj 4 41 bng 15 250 50 0 empty empty empty 0 -6 0 8 -262144 -1 -1
;
#X obj 111 87 inlet;
#X obj 4 4 inlet;
#X obj 234 362 inlet;
#X obj 234 400 dbtorms;
#X obj 234 440 line~;
#X obj 98 501 *~;
#X obj 98 531 dac~;
#X obj 234 420 pack 0 50;
#X text 298 428 audio in;
#X text 277 378 <-- convert from dB to linear units;
#X text 295 408 <-- make a ramp to avoid clicks or zipper noise;
#X obj 160 498 *~;
#X floatatom 234 382 5 0 100 0 - - -;
#X obj 4 564 outlet;
#X obj 75 3 inlet;
#X obj 75 64 select 0 1;
#X obj 30 185 inlet;
#X msg 4 236 open \$1;
#X obj 264 152 bng 15 250 50 0 empty empty play 20 8 1 8 -24198 -1
-1;
#X msg 515 229 loop \$1;
#X obj 515 211 tgl 15 1 empty empty loop 20 8 0 8 -241291 -1 -1 1 1
;
#X obj 695 185 vsl 15 128 -8 8 0 0 empty empty speed 0 -8 1 8 -260818
-1 -1 6518 1;
#X obj 4 126 openpanel;
#X obj 4 106 bng 15 250 50 0 empty empty open 0 -6 1 8 -166441 -1 -1
;
#X obj 255 183 bng 15 250 50 0 empty empty stop 20 8 1 8 -1 -1 -1;
#X text 402 163 resets sound to position;
#X text 401 152 start position in samples;
#X obj 734 181 loadbang;
#X msg 405 178 index \$1;
#X text 592 546 en secondes;
#X obj 549 556 / 1000;
#X obj 549 537 * 40;
#X floatatom 232 18 5 0 0 0 - - -;
#X obj 232 105 * 44100;
#X floatatom 695 329 5 0 0 0 - - -;
#X msg 690 141 0.81;
#X msg 346 172 close;
#X msg 669 113 0.054;
#X msg 645 187 0.5;
#X obj 232 73 / 25;
#X obj 607 7 r auds;
#X obj 128 16 r \$0-starta;
#X obj 75 37 tgl 15 0 empty empty empty 17 7 0 10 -262144 -1 -1 0 1
;
#X obj 315 510 hip~ 10;
#X obj 377 510 hip~ 10;
#X floatatom 567 153 5 0 0 0 - - -;
#X obj 501 74 / 40;
#X obj 502 97 - 1;
#X obj 508 123 abs;
#X floatatom 498 27 5 0 0 0 - - -;
#X floatatom 615 46 5 0 0 0 - - -;
#X floatatom 616 107 5 0 0 0 - - -;
#X obj 416 52 t f b;
#X msg 425 77 1;
#X obj 422 99 /;
#X obj 462 119 * 40;
#X obj 584 277 line;
#X msg 582 232 1 500;
#X msg 623 232 0.054 500;
#X msg 577 189 0.81 500;
#X obj 567 -20 r audiospeed;
#X obj 615 81 maxlib/scale 40 200 1 0.2;
#X obj 318 555 outlet~;
#X obj 154 556 outlet~;
#X obj 566 642 cnv 15 200 20 empty empty /delayPhasor/ 2 12 0 8 -258401
-262144 0;
#X obj 566 665 hsl 100 15 0 1 0 0 /delayPhasor/wet /delayPhasor/wet_
wet 105 7 0 8 -262144 -1 -1 0 1;
#X obj 566 683 hsl 100 15 1 20000 0 0 /delayPhasor/delay2 /delayPhasor/delay2_
delay2 105 7 0 8 -262144 -1 -1 900 1;
#X obj 566 701 hsl 100 15 1 20000 0 0 /delayPhasor/delay1 /delayPhasor/delay1_
delay1 105 7 0 8 -262144 -1 -1 9900 1;
#X obj 566 719 hsl 100 15 0.01 10 0 0 /delayPhasor/phasor /delayPhasor/phasor_
phasor 105 7 0 8 -262144 -1 -1 9900 1;
#X floatatom 513 717 5 0 0 0 - - -;
#X floatatom 513 740 5 0 0 0 - - -;
#X floatatom 513 761 5 0 0 0 - - -;
#X obj 464 646 unpack f f f f;
#X msg 464 621 0 1819 20000 10;
#X obj 565 604 loadbang;
#X obj 824 198 vsl 15 128 0 1 0 0 empty empty empty 0 -9 0 10 -228856
-258113 -1 0 1;
#X msg 734 200 0.212;
#X msg 735 221 -0.212;
#X msg 393 -2 661500;
#X floatatom 406 135 12 0 0 0 - - -;
#X obj 426 323 print;
#X obj 474 320 print;
#X msg 342 20 3.0615e+06;
#X obj 199 688 mtl/delayPhasor~ /id delayPhasor;
#X obj 393 266 readanysf~ 2;
#X floatatom 822 546 5 0 0 0 - - -;
#X floatatom 868 498 5 0 0 0 - - -;
#X floatatom 777 576 5 0 0 0 - - -;
#X floatatom 913 461 5 0 0 0 - - -;
#X obj 1004 398 bng 15 250 50 0 empty empty empty 17 7 0 10 -262144
-1 -1;
#X obj 777 372 route ready samplerate length cache float bang;
#X floatatom 959 429 5 0 0 0 - - -;
#X text 822 575 ready: status for when a file is loaded and ready;
#X text 866 588 to play. If you load a file from disk or;
#X text 866 602 from the net \, it may take a while to load;
#X text 865 615 depending on disk activity and net bandwidth.;
#X text 954 460 cache: percentage (0.0->1.0) of;
#X text 995 473 cache being used.;
#X text 1029 399 bang: end of file.;
#X text 1001 428 float: position of file in seconds;
#X text 1042 441 relative to the file's samplerate;
#X text 907 497 length: total duration of file in seconds;
#X text 954 523 (will be empty for network streams);
#X text 956 510 relative to file's internal samplerate;
#X text 880 547 The samplerate of the file being played.;
#X floatatom 832 73 16 0 0 0 - - -;
#X msg 832 93 pcm_seek \$1;
#X obj 835 50 hsl 128 15 0 7.368e+06 0 0 empty empty empty -2 -8 0
10 -260818 -1 -1 0 1;
#X floatatom 981 76 16 0 0 0 - - -;
#X obj 984 53 hsl 128 15 0 500 0 0 empty empty empty -2 -8 0 10 -260818
-1 -1 0 1;
#X msg 981 96 time_seek \$1;
#X msg 255 200 stop;
#X msg 304 184 play;
#X msg 186 197 pause;
#X connect 0 0 24 0;
#X connect 1 0 40 0;
#X connect 2 0 0 0;
#X connect 3 0 13 0;
#X connect 4 0 8 0;
#X connect 5 0 12 0;
#X connect 5 0 6 0;
#X connect 6 0 7 0;
#X connect 6 0 64 0;
#X connect 8 0 5 0;
#X connect 12 0 7 1;
#X connect 12 0 63 0;
#X connect 13 0 4 0;
#X connect 15 0 43 0;
#X connect 16 0 25 0;
#X connect 16 1 19 0;
#X connect 17 0 85 0;
#X connect 18 0 85 0;
#X connect 19 0 113 0;
#X connect 20 0 85 0;
#X connect 21 0 20 0;
#X connect 22 0 35 0;
#X connect 23 0 18 0;
#X connect 23 0 14 0;
#X connect 24 0 23 0;
#X connect 25 0 112 0;
#X connect 28 0 77 0;
#X connect 29 0 85 0;
#X connect 32 0 31 0;
#X connect 33 0 40 0;
#X connect 34 0 29 0;
#X connect 36 0 22 0;
#X connect 37 0 85 0;
#X connect 38 0 22 0;
#X connect 39 0 22 0;
#X connect 40 0 34 0;
#X connect 41 0 51 0;
#X connect 43 0 16 0;
#X connect 44 0 6 1;
#X connect 45 0 12 1;
#X connect 47 0 48 0;
#X connect 48 0 49 0;
#X connect 49 0 46 0;
#X connect 50 0 53 0;
#X connect 51 0 62 0;
#X connect 52 0 22 0;
#X connect 53 0 55 1;
#X connect 53 1 54 0;
#X connect 54 0 55 0;
#X connect 55 0 56 0;
#X connect 56 0 46 0;
#X connect 57 0 22 0;
#X connect 58 0 57 0;
#X connect 59 0 57 0;
#X connect 60 0 57 0;
#X connect 61 0 52 0;
#X connect 62 0 52 0;
#X connect 67 0 70 0;
#X connect 68 0 71 0;
#X connect 69 0 72 0;
#X connect 73 0 66 0;
#X connect 73 1 67 0;
#X connect 73 2 68 0;
#X connect 73 3 69 0;
#X connect 74 0 73 0;
#X connect 75 0 74 0;
#X connect 76 0 35 0;
#X connect 77 0 22 0;
#X connect 78 0 22 0;
#X connect 79 0 80 0;
#X connect 80 0 29 0;
#X connect 83 0 80 0;
#X connect 84 0 6 1;
#X connect 84 1 12 1;
#X connect 85 0 44 0;
#X connect 85 1 45 0;
#X connect 85 2 91 0;
#X connect 91 0 88 0;
#X connect 91 1 86 0;
#X connect 91 2 87 0;
#X connect 91 3 89 0;
#X connect 91 4 92 0;
#X connect 91 5 90 0;
#X connect 106 0 107 0;
#X connect 107 0 85 0;
#X connect 108 0 106 0;
#X connect 109 0 111 0;
#X connect 110 0 109 0;
#X connect 111 0 85 0;
#X connect 112 0 85 0;
#X connect 113 0 85 0;
#X connect 114 0 85 0;
#X restore 75 301 pd audiosf;
#X symbolatom 75 324 52 0 0 0 - - -;
#X obj 143 302 bng 15 250 50 0 empty empty La_Fin 20 7 0 8 -1 -258699
-1;
#X floatatom 130 282 5 0 100 2 vol - -;
#X obj 75 273 bng 21 250 50 0 empty empty load 0 -6 0 8 -24198 -258699
-1;
#X msg 129 141 95;
#X msg 80 196 close;
#X obj 103 226 tgl 19 0 empty empty Play1 5 -7 0 10 -4034 -258113 -1
0 1;
#N canvas 239 88 1277 804 audiosf 0;
#X obj 4 41 bng 15 250 50 0 empty empty empty 0 -6 0 8 -262144 -1 -1
;
#X obj 111 87 inlet;
#X obj 4 4 inlet;
#X obj 234 362 inlet;
#X obj 234 400 dbtorms;
#X obj 234 440 line~;
#X obj 98 501 *~;
#X obj 98 531 dac~;
#X obj 234 420 pack 0 50;
#X text 298 428 audio in;
#X text 277 378 <-- convert from dB to linear units;
#X text 295 408 <-- make a ramp to avoid clicks or zipper noise;
#X obj 160 498 *~;
#X floatatom 234 382 5 0 100 0 - - -;
#X obj 4 564 outlet;
#X obj 75 3 inlet;
#X obj 75 64 select 0 1;
#X obj 30 185 inlet;
#X msg 4 236 open \$1;
#X obj 264 152 bng 15 250 50 0 empty empty play 20 8 1 8 -24198 -1
-1;
#X msg 515 229 loop \$1;
#X obj 515 211 tgl 15 1 empty empty loop 20 8 0 8 -241291 -1 -1 1 1
;
#X obj 294 107 tgl 15 1 empty empty interpolation 20 8 1 8 -257472
-1 -1 1 1;
#X msg 294 125 interp \$1;
#X obj 695 185 vsl 15 128 -8 8 0 0 empty empty speed 0 -8 1 8 -260818
-1 -1 6518 1;
#X obj 4 126 openpanel;
#X obj 4 106 bng 15 250 50 0 empty empty open 0 -6 1 8 -166441 -1 -1
;
#X obj 255 183 bng 15 250 50 0 empty empty stop 20 8 1 8 -1 -1 -1;
#X msg 255 200 0;
#X text 402 163 resets sound to position;
#X text 401 152 start position in samples;
#X obj 734 181 loadbang;
#X msg 405 178 index \$1;
#X text 592 546 en secondes;
#X obj 549 556 / 1000;
#X obj 549 537 * 40;
#X floatatom 232 18 5 0 0 0 - - -;
#X obj 232 105 * 44100;
#X floatatom 695 329 5 0 0 0 - - -;
#X msg 690 141 0.81;
#X msg 346 172 close;
#X msg 669 113 0.054;
#X msg 645 187 0.5;
#X obj 232 73 / 25;
#X obj 607 7 r auds;
#X obj 128 16 r \$0-starta;
#X obj 75 37 tgl 15 0 empty empty empty 17 7 0 10 -262144 -1 -1 0 1
;
#X obj 315 510 hip~ 10;
#X obj 377 510 hip~ 10;
#X floatatom 567 153 5 0 0 0 - - -;
#X obj 501 74 / 40;
#X obj 502 97 - 1;
#X obj 508 123 abs;
#X floatatom 498 27 5 0 0 0 - - -;
#X floatatom 615 46 5 0 0 0 - - -;
#X floatatom 616 107 5 0 0 0 - - -;
#X obj 416 52 t f b;
#X msg 425 77 1;
#X obj 422 99 /;
#X obj 462 119 * 40;
#X obj 584 277 line;
#X msg 582 232 1 500;
#X msg 623 232 0.054 500;
#X msg 577 189 0.81 500;
#X obj 567 -20 r audiospeed;
#X obj 615 81 maxlib/scale 40 200 1 0.2;
#X obj 318 555 outlet~;
#X obj 154 556 outlet~;
#X obj 566 642 cnv 15 200 20 empty empty /delayPhasor/ 2 12 0 8 -258401
-262144 0;
#X obj 566 665 hsl 100 15 0 1 0 0 /delayPhasor/wet /delayPhasor/wet_
wet 105 7 0 8 -262144 -1 -1 0 1;
#X obj 566 683 hsl 100 15 1 20000 0 0 /delayPhasor/delay2 /delayPhasor/delay2_
delay2 105 7 0 8 -262144 -1 -1 900 1;
#X obj 566 701 hsl 100 15 1 20000 0 0 /delayPhasor/delay1 /delayPhasor/delay1_
delay1 105 7 0 8 -262144 -1 -1 9900 1;
#X obj 566 719 hsl 100 15 0.01 10 0 0 /delayPhasor/phasor /delayPhasor/phasor_
phasor 105 7 0 8 -262144 -1 -1 9900 1;
#X floatatom 513 717 5 0 0 0 - - -;
#X floatatom 513 740 5 0 0 0 - - -;
#X floatatom 513 761 5 0 0 0 - - -;
#X obj 464 646 unpack f f f f;
#X msg 464 621 0 1819 20000 10;
#X obj 565 604 loadbang;
#X obj 199 688 mtl/delayPhasor~ /id delayPhasor;
#X obj 824 198 vsl 15 128 0 1 0 0 empty empty empty 0 -9 0 10 -228856
-258113 -1 0 1;
#X msg 734 200 0.212;
#X msg 735 221 -0.212;
#X msg 393 -2 661500;
#X floatatom 406 135 12 0 0 0 - - -;
#X obj 426 323 print;
#X obj 474 320 print;
#X msg 342 20 3.0615e+06;
#X obj 393 266 sfread2~ 2;
#X connect 0 0 26 0;
#X connect 1 0 43 0;
#X connect 2 0 0 0;
#X connect 3 0 13 0;
#X connect 4 0 8 0;
#X connect 5 0 12 0;
#X connect 5 0 6 0;
#X connect 6 0 7 0;
#X connect 6 0 67 0;
#X connect 8 0 5 0;
#X connect 12 0 7 1;
#X connect 12 0 66 0;
#X connect 13 0 4 0;
#X connect 15 0 46 0;
#X connect 16 0 27 0;
#X connect 16 1 19 0;
#X connect 17 0 88 0;
#X connect 18 0 88 0;
#X connect 19 0 88 0;
#X connect 20 0 88 0;
#X connect 21 0 20 0;
#X connect 22 0 23 0;
#X connect 23 0 88 0;
#X connect 24 0 38 0;
#X connect 25 0 18 0;
#X connect 25 0 14 0;
#X connect 26 0 25 0;
#X connect 27 0 28 0;
#X connect 28 0 88 0;
#X connect 31 0 81 0;
#X connect 32 0 88 0;
#X connect 35 0 34 0;
#X connect 36 0 43 0;
#X connect 37 0 32 0;
#X connect 38 0 88 1;
#X connect 39 0 24 0;
#X connect 40 0 88 0;
#X connect 41 0 24 0;
#X connect 42 0 24 0;
#X connect 43 0 37 0;
#X connect 44 0 54 0;
#X connect 46 0 16 0;
#X connect 47 0 6 1;
#X connect 48 0 12 1;
#X connect 50 0 51 0;
#X connect 51 0 52 0;
#X connect 52 0 49 0;
#X connect 53 0 56 0;
#X connect 54 0 65 0;
#X connect 55 0 24 0;
#X connect 56 0 58 1;
#X connect 56 1 57 0;
#X connect 57 0 58 0;
#X connect 58 0 59 0;
#X connect 59 0 49 0;
#X connect 60 0 24 0;
#X connect 61 0 60 0;
#X connect 62 0 60 0;
#X connect 63 0 60 0;
#X connect 64 0 55 0;
#X connect 65 0 55 0;
#X connect 70 0 73 0;
#X connect 71 0 74 0;
#X connect 72 0 75 0;
#X connect 76 0 69 0;
#X connect 76 1 70 0;
#X connect 76 2 71 0;
#X connect 76 3 72 0;
#X connect 77 0 76 0;
#X connect 78 0 77 0;
#X connect 79 0 6 1;
#X connect 79 1 12 1;
#X connect 80 0 38 0;
#X connect 81 0 24 0;
#X connect 82 0 24 0;
#X connect 83 0 84 0;
#X connect 84 0 32 0;
#X connect 87 0 84 0;
#X connect 88 0 47 0;
#X connect 88 1 48 0;
#X connect 88 2 85 0;
#X connect 88 3 86 0;
#X restore 441 186 pd audiosf;
#X symbolatom 441 209 52 0 0 0 - - -;
#X obj 509 187 bng 15 250 50 0 empty empty La_Fin 20 7 0 8 -1 -258699
-1;
#X floatatom 482 140 5 0 0 0 - - -;
#X floatatom 496 167 5 0 100 2 vol - -;
#X obj 441 158 bng 21 250 50 0 empty empty load 0 -6 0 8 -24198 -258699
-1;
#X obj 563 128 r \$0-b;
#X msg 563 150 95;
#X msg 446 81 close;
#X text 491 125 Num frame;
#X obj 469 111 tgl 19 0 empty empty Play1 5 -7 0 10 -4034 -258113 -1
0 1;
#X msg 392 52 open wav/Terbas16x.wav;
#X msg 410 29 open wav/Terbas14x.wav;
#X msg 415 4 open wav/Terbas11x.wav;
#X msg 415 -21 open wav/Bass_11644khzST.wav;
#X msg 0 73 open /media/Docs/Z_Vid/MP3/01BrokenNote-Crux.wav;
#X msg 42 40 open /media/Docs/WAudioblast2018/AudioBlastLarsenStream02.wav
;
#X obj 160 151 vsl 21 128 0 100 0 0 empty empty Vol 0 -9 0 10 -258113
-262144 -1 0 1;
#X obj 129 119 inlet;
#X connect 0 0 1 0;
#X connect 3 0 0 4;
#X connect 4 0 0 0;
#X connect 5 0 25 0;
#X connect 6 0 0 1;
#X connect 7 0 0 2;
#X connect 8 0 9 0;
#X connect 11 0 8 3;
#X connect 12 0 8 4;
#X connect 13 0 8 0;
#X connect 14 0 15 0;
#X connect 15 0 12 0;
#X connect 16 0 8 1;
#X connect 18 0 8 2;
#X connect 19 0 8 1;
#X connect 20 0 8 1;
#X connect 21 0 8 1;
#X connect 22 0 8 1;
#X connect 23 0 0 1;
#X connect 24 0 0 1;
#X connect 25 0 3 0;
#X connect 26 0 5 0;
#X restore 73 956 pd playeraudio2;
#X floatatom 134 941 5 0 100 2 vol - -;
#X msg 134 801 95;
#X obj 165 811 vsl 21 128 0 100 0 0 empty empty Vol 0 -9 0 10 -258113
-262144 -1 0 1;
#X obj 134 779 inlet;
#X text -103 817 Change divider inside subpatch;
#X text 55 932 Audioblast;
#X text -103 840 Change buffer size petit smooth grand +core;
#X text -101 862 play synth 30 29.99 30.03;
#X text -98 882 play samplz 1 1.04 0.5;
#X text -100 908 RESIZE TABLES SI NO SOUND;
#X connect 7 0 8 0;
#X connect 11 0 10 0;
#X connect 12 0 13 0;
#X connect 13 0 11 0;
#X connect 14 0 12 0;
